<svg xmlns="http://www.w3.org/2000/svg" baseProfile="full" version="1.1" width="300px" height="300px" style="fill: none; width: 300px; height: 300px;"><path d="" style="stroke-width: 10; stroke-linecap: round; stroke-linejoin: round; stroke: rgb(204, 204, 204); fill: none;"/><path d="" style="stroke-width: 10; stroke-linecap: round; stroke-linejoin: round; stroke: rgb(153, 153, 153); fill: none;"/><path d="M60,240 A60,180 0 0,1 120,60 A30,120 0 0,1 150,180 L150,180 A30,120 0 0,1 180,60 A60,180 0 0,1 240,240 M60,240 A60,180 0 0,0 120,60 L180,60 A60,180 0 0,0 240,240 L60,240 M60,60 A60,180 0 0,0 120,240 A30,120 0 0,0 150,120 L150,120 A30,120 0 0,0 180,240 A60,180 0 0,0 240,60 M60,60 A60,180 0 0,1 120,240 L180,240 A60,180 0 0,1 240,60 L60,60 " style="stroke-width: 11; stroke-linecap: round; stroke-linejoin: miter; stroke: rgb(255, 255, 255); fill: none;"/></svg>